<?xml version="1.0"?>
<svg version="1.1" xmlns="http://www.w3.org/2000/svg" width="180" height="100" style=""><path fill="#5c80fe" d="M68.9,45l-3.15,0l0,21.25q0,4.2-3.2,7.4t-7.4,3.2t-7.4-3.2t-3.2-7.4l0-21.25l-3.15,0l0,21.25q0,4.2-3.2,7.4q-3.3,3.2-7.45,3.2q-4.2,0-7.4-3.2t-3.2-7.4l0-21.25l-3.15,0l0,21.25q0,5.55,4.1,9.65t9.65,4.1q3.8,0,7.15-2.1q3.3-2.05,4.75-5.35q1.8,3.2,5.3,5.35q3.4,2.1,7.2,2.1q5.6,0,9.7-4.1q4.05-4.05,4.05-9.65l0-21.25z M90.392,44.8q-5.6,0-9.4,4.05q-3.75,4-3.75,9.75l0,21.4l3.15,0l0-15.7l20.1,0l0,15.7l3.15,0l0-21.4q0-5.75-3.75-9.75q-3.9-4.05-9.5-4.05z M100.492,61.2l-20.1,0l0-2.6q0-4.3,2.9-7.45q2.95-3.2,7.1-3.2t7.2,3.2q2.9,3.15,2.9,7.45l0,2.6z M112.384,80.1l24.45,0l0-2.55l-21.35,0l0-32.55l-3.1,0l0,35.1z M169.176,45l-3.1,0l0,3.7q0,4.6-3.2,7.7q-3.15,3-7.5,3q-4.65,0-7.65-3t-3-7.7l0-3.7l-3.1,0l0,3.7q0,5.6,3.4,9.5q3.35,3.95,8.5,4.3l0,17.55l3.15,0l0-17.55q5.25-0.4,8.85-4.3q3.65-3.9,3.65-9.5l0-3.7z"/><path fill="#" d=""/></svg>
